<?xml version="1.0" encoding="iso-8859-1"?>
<!-- Uploaded to: SVG Repo, www.svgrepo.com, Generator: SVG Repo Mixer Tools -->
<svg version="1.1" id="Layer_1" xmlns="http://www.w3.org/2000/svg" xmlns:xlink="http://www.w3.org/1999/xlink" 
	 viewBox="0 0 511.999 511.999" xml:space="preserve">
<rect x="42.997" y="114.176" style="fill:#FF9732;" width="309.516" height="343.406"/>
<rect x="42.997" y="211.159" style="fill:#E3A9ED;" width="190.283" height="167.665"/>
<path d="M150.906,278.715H78.821c-6.54,0-11.842-5.301-11.842-11.842c0-6.54,5.301-11.842,11.842-11.842h72.085
	c6.54,0,11.842,5.301,11.842,11.842C162.747,273.414,157.446,278.715,150.906,278.715z"/>
<path d="M186.428,278.719c-0.77,0-1.551-0.083-2.309-0.237c-0.758-0.154-1.504-0.379-2.214-0.675
	c-0.722-0.296-1.409-0.663-2.049-1.089c-0.651-0.426-1.255-0.924-1.8-1.468s-1.042-1.149-1.468-1.8
	c-0.426-0.639-0.793-1.326-1.089-2.049c-0.296-0.711-0.521-1.457-0.675-2.214c-0.154-0.758-0.237-1.539-0.237-2.309
	c0-0.782,0.083-1.551,0.237-2.321c0.154-0.758,0.379-1.492,0.675-2.214c0.296-0.71,0.663-1.397,1.089-2.037
	c0.426-0.651,0.924-1.255,1.468-1.8c0.545-0.545,1.149-1.042,1.8-1.48c0.639-0.426,1.326-0.793,2.049-1.089
	c0.711-0.296,1.457-0.521,2.214-0.675c1.528-0.308,3.102-0.308,4.63,0c0.746,0.154,1.492,0.379,2.214,0.675
	c0.71,0.296,1.397,0.663,2.037,1.089c0.651,0.438,1.255,0.935,1.8,1.48c0.545,0.545,1.042,1.149,1.48,1.8
	c0.426,0.639,0.793,1.326,1.089,2.037c0.296,0.722,0.521,1.457,0.675,2.214c0.154,0.77,0.225,1.539,0.225,2.321
	c0,0.77-0.071,1.551-0.225,2.309c-0.154,0.758-0.379,1.504-0.675,2.214c-0.296,0.722-0.663,1.409-1.089,2.049
	c-0.438,0.651-0.935,1.255-1.48,1.8s-1.149,1.042-1.8,1.468c-0.639,0.426-1.326,0.793-2.037,1.089
	c-0.722,0.296-1.468,0.521-2.214,0.675C187.979,278.637,187.197,278.719,186.428,278.719z"/>
<path d="M186.431,334.963h-72.085c-6.54,0-11.842-5.301-11.842-11.842s5.301-11.842,11.842-11.842h72.085
	c6.54,0,11.842,5.301,11.842,11.842S192.971,334.963,186.431,334.963z"/>
<path d="M78.822,334.967c-0.77,0-1.551-0.083-2.321-0.237c-0.746-0.154-1.492-0.379-2.214-0.675
	c-0.71-0.296-1.397-0.663-2.037-1.089c-0.651-0.426-1.255-0.924-1.8-1.468c-0.545-0.545-1.042-1.149-1.48-1.8
	c-0.426-0.639-0.793-1.338-1.089-2.049c-0.296-0.711-0.521-1.457-0.675-2.214c-0.142-0.758-0.225-1.539-0.225-2.309
	c0-0.782,0.083-1.551,0.225-2.321c0.154-0.758,0.379-1.492,0.675-2.214c0.296-0.711,0.663-1.397,1.089-2.037
	c0.438-0.651,0.935-1.255,1.48-1.8c0.545-0.545,1.149-1.042,1.8-1.48c0.639-0.426,1.326-0.793,2.037-1.089
	c0.722-0.296,1.468-0.521,2.214-0.675c1.528-0.308,3.103-0.308,4.63,0c0.758,0.154,1.504,0.379,2.214,0.675
	c0.722,0.296,1.409,0.663,2.049,1.089c0.651,0.438,1.255,0.936,1.8,1.48c2.203,2.203,3.47,5.246,3.47,8.372
	c0,0.77-0.083,1.551-0.237,2.309c-0.154,0.758-0.379,1.504-0.675,2.214c-0.296,0.711-0.663,1.409-1.089,2.049
	c-0.426,0.651-0.924,1.255-1.468,1.8c-0.545,0.545-1.149,1.042-1.8,1.468c-0.639,0.426-1.326,0.793-2.049,1.089
	c-0.71,0.296-1.457,0.521-2.214,0.675C80.375,334.885,79.593,334.967,78.822,334.967z"/>
<rect x="11.842" y="54.968" style="fill:#FFC674;" width="371.826" height="94.733"/>
<path style="fill:#6D529F;" d="M259.595,412.761L259.595,412.761c0-24.447,19.818-44.265,44.265-44.265h73.928
	c24.447,0,44.265,19.818,44.265,44.265l0,0c0,24.447-19.818,44.265-44.265,44.265H303.86
	C279.413,457.026,259.595,437.208,259.595,412.761z"/>
<path style="fill:#FF738D;" d="M353.545,295.519L353.545,295.519c-12.224,21.172-4.97,48.244,16.202,60.468l64.024,36.964
	c21.172,12.224,48.244,4.97,60.468-16.202l0,0c12.224-21.172,4.97-48.244-16.203-60.468l-64.024-36.964
	C392.842,267.093,365.769,274.347,353.545,295.519z"/>
<path d="M483.958,306.026l-64.024-36.964c-12.978-7.493-28.098-9.484-42.575-5.605c-4.6,1.233-8.958,3.016-13.007,5.285V161.548
	h19.316c6.54,0,11.842-5.301,11.842-11.842V54.973c0-6.54-5.301-11.842-11.842-11.842H11.842C5.301,43.132,0,48.433,0,54.973v94.733
	c0,6.54,5.301,11.842,11.842,11.842h19.316v296.04c0,6.54,4.689,11.229,11.229,11.229l335.401,0.051
	c30.937,0,56.107-25.169,56.107-56.107c0-2.281-0.153-4.525-0.418-6.736c7.1,3.114,14.674,4.721,22.336,4.721
	c4.873,0,9.78-0.641,14.613-1.936c14.476-3.878,26.575-13.163,34.068-26.141C519.962,355.878,510.75,321.494,483.958,306.026z
	 M371.826,137.864h-63.353v-71.05h63.353V137.864z M110.719,137.864v-71.05h75.194v71.05H110.719z M209.596,66.815h75.194v71.05
	h-75.194V66.815z M23.683,66.815h63.353v71.05H23.683V66.815z M54.841,223.008h166.597V366.99H54.841V223.008z M54.841,390.673
	H233.28c6.54,0,11.842-5.301,11.842-11.842V211.166c0-6.54-5.301-11.842-11.842-11.842H54.841v-37.777h285.828v133.179
	c-6.692,14.919-6.312,31.559,0,45.764v16.164H303.86c-30.937,0-56.107,25.169-56.107,56.107c0,12.321,4.001,23.719,10.76,32.985
	H54.841V390.673z M377.788,445.185H303.86c-17.878,0-32.423-14.545-32.423-32.423s14.545-32.423,32.423-32.423h73.928
	c17.878,0,32.423,14.545,32.423,32.423S395.667,445.185,377.788,445.185z M483.984,370.828c-4.33,7.5-11.323,12.866-19.688,15.108
	c-8.365,2.24-17.104,1.091-24.603-3.239l-64.024-36.964c-15.483-8.939-20.807-28.809-11.868-44.292
	c4.33-7.5,11.323-12.866,19.688-15.108c2.793-0.748,5.628-1.119,8.444-1.119c5.619,0,11.163,1.474,16.159,4.358l64.024,36.964
	C487.599,335.476,492.923,355.345,483.984,370.828z"/>
</svg>