<?xml version="1.0" encoding="iso-8859-1"?>
<!-- Uploaded to: SVG Repo, www.svgrepo.com, Generator: SVG Repo Mixer Tools -->
<svg height="800px" width="800px" version="1.1" id="Layer_1" xmlns="http://www.w3.org/2000/svg" xmlns:xlink="http://www.w3.org/1999/xlink" 
	 viewBox="0 0 512 512" xml:space="preserve">
<g transform="translate(1 1)">
	<g>
		<path style="fill:#FFE100;" d="M323.267,202.093c-2.56,0-4.267-0.853-5.973-2.56c-3.413-3.413-3.413-8.533,0-11.947l85.333-85.333
			c3.413-3.413,8.533-3.413,11.947,0c3.413,3.413,3.413,8.533,0,11.947l-85.333,85.333
			C327.533,201.24,325.827,202.093,323.267,202.093z"/>
		<path style="fill:#FFE100;" d="M148.333,380.44c-2.56,0-4.267-0.853-5.973-2.56c-3.413-3.413-3.413-8.533,0-11.947l56.32-56.32
			c3.413-3.413,8.533-3.413,11.947,0c3.413,3.413,3.413,8.533,0,11.947l-56.32,56.32C152.6,379.587,150.04,380.44,148.333,380.44z"
			/>
		<path style="fill:#FFE100;" d="M395.8,394.093c-2.56,0-4.267-0.853-5.973-2.56L319,320.707c-3.413-3.413-3.413-8.533,0-11.947
			c3.413-3.413,8.533-3.413,11.947,0l70.827,70.827c3.413,3.413,3.413,8.533,0,11.947C400.067,393.24,397.507,394.093,395.8,394.093
			z"/>
		<path style="fill:#FFE100;" d="M203.8,202.947c-2.56,0-4.267-0.853-5.973-2.56l-98.987-99.84c-3.413-3.413-3.413-8.533,0-11.947
			s8.533-3.413,11.947,0l98.987,100.693c3.413,3.413,3.413,8.533,0,11.947C208.067,202.947,206.36,202.947,203.8,202.947z"/>
	</g>
	<path style="fill:#FDCC00;" d="M135.533,425.667c0-42.667-23.04-76.8-51.2-76.8s-51.2,34.133-51.2,76.8s23.04,76.8,51.2,76.8
		S135.533,468.333,135.533,425.667"/>
	<path style="fill:#FFA800;" d="M84.333,348.867c28.16,0,51.2,34.133,51.2,76.8s-23.04,76.8-51.2,76.8
		c42.667,0,76.8-34.133,76.8-76.8S127,348.867,84.333,348.867"/>
	<path style="fill:#FFFFFF;" d="M33.133,425.667c0-42.667,23.04-76.8,51.2-76.8c-42.667,0-76.8,34.133-76.8,76.8
		s34.133,76.8,76.8,76.8C56.173,502.467,33.133,468.333,33.133,425.667"/>
	<path style="fill:#FDCC00;" d="M476.867,67.267c0-33.28-15.36-59.733-34.133-59.733c-18.773,0-34.133,26.453-34.133,59.733
		S423.96,127,442.733,127C461.507,127,476.867,100.547,476.867,67.267"/>
	<path style="fill:#FFFFFF;" d="M408.6,67.267c0-33.28,15.36-59.733,34.133-59.733C409.453,7.533,383,33.987,383,67.267
		S409.453,127,442.733,127C423.96,127,408.6,100.547,408.6,67.267"/>
	<path style="fill:#FFA800;" d="M442.733,7.533c18.773,0,34.133,26.453,34.133,59.733S461.507,127,442.733,127
		c33.28,0,59.733-26.453,59.733-59.733S476.013,7.533,442.733,7.533"/>
	<path style="fill:#FDCC00;" d="M314.733,255c0-46.933-26.453-85.333-59.733-85.333s-59.733,38.4-59.733,85.333
		S221.72,340.333,255,340.333S314.733,301.933,314.733,255"/>
	<path style="fill:#FFFFFF;" d="M195.267,255c0-46.933,26.453-85.333,59.733-85.333c-46.933,0-85.333,38.4-85.333,85.333
		s38.4,85.333,85.333,85.333C221.72,340.333,195.267,301.933,195.267,255"/>
	<path style="fill:#FFA800;" d="M255,169.667c33.28,0,59.733,38.4,59.733,85.333S288.28,340.333,255,340.333
		c46.933,0,85.333-38.4,85.333-85.333S301.933,169.667,255,169.667"/>
	<path style="fill:#FDCC00;" d="M476.867,434.2c0-37.547-18.773-68.267-42.667-68.267c-23.893,0-42.667,30.72-42.667,68.267
		s18.773,68.267,42.667,68.267C458.093,502.467,476.867,471.747,476.867,434.2"/>
	<path style="fill:#FFA800;" d="M434.2,365.933c23.893,0,42.667,30.72,42.667,68.267s-18.773,68.267-42.667,68.267
		c37.547,0,68.267-30.72,68.267-68.267S471.747,365.933,434.2,365.933"/>
	<path style="fill:#FFFFFF;" d="M391.533,434.2c0-37.547,18.773-68.267,42.667-68.267c-37.547,0-68.267,30.72-68.267,68.267
		s30.72,68.267,68.267,68.267C410.307,502.467,391.533,471.747,391.533,434.2"/>
	<path style="fill:#FDCC00;" d="M92.867,58.733c0-28.16-15.36-51.2-34.133-51.2S24.6,30.573,24.6,58.733s15.36,51.2,34.133,51.2
		S92.867,86.893,92.867,58.733"/>
	<path style="fill:#FFA800;" d="M58.733,7.533c18.773,0,34.133,23.04,34.133,51.2s-15.36,51.2-34.133,51.2
		c28.16,0,51.2-23.04,51.2-51.2S86.893,7.533,58.733,7.533"/>
	<path style="fill:#FFFFFF;" d="M24.6,58.733c0-28.16,15.36-51.2,34.133-51.2c-28.16,0-51.2,23.04-51.2,51.2s23.04,51.2,51.2,51.2
		C39.96,109.933,24.6,86.893,24.6,58.733"/>
	<path d="M255,348.867c-52.053,0-93.867-41.813-93.867-93.867s41.813-93.867,93.867-93.867s93.867,41.813,93.867,93.867
		S307.053,348.867,255,348.867z M255,178.2c-42.667,0-76.8,34.133-76.8,76.8s34.133,76.8,76.8,76.8s76.8-34.133,76.8-76.8
		S297.667,178.2,255,178.2z"/>
	<path d="M203.8,263.533c-5.12,0-8.533-3.413-8.533-8.533c0-33.28,26.453-59.733,59.733-59.733c5.12,0,8.533,3.413,8.533,8.533
		c0,5.12-3.413,8.533-8.533,8.533c-23.893,0-42.667,18.773-42.667,42.667C212.333,260.12,208.92,263.533,203.8,263.533z"/>
	<path d="M442.733,135.533c-37.547,0-68.267-30.72-68.267-68.267S405.187-1,442.733-1S511,29.72,511,67.267
		S480.28,135.533,442.733,135.533z M442.733,16.067c-28.16,0-51.2,23.04-51.2,51.2s23.04,51.2,51.2,51.2
		c28.16,0,51.2-23.04,51.2-51.2S470.893,16.067,442.733,16.067z"/>
	<path d="M417.133,75.8c-5.12,0-8.533-3.413-8.533-8.533c0-18.773,15.36-34.133,34.133-34.133c5.12,0,8.533,3.413,8.533,8.533
		s-3.413,8.533-8.533,8.533c-9.387,0-17.067,7.68-17.067,17.067C425.667,72.387,422.253,75.8,417.133,75.8z"/>
	<path d="M58.733,118.467C25.453,118.467-1,92.013-1,58.733S25.453-1,58.733-1s59.733,26.453,59.733,59.733
		S92.013,118.467,58.733,118.467z M58.733,16.067c-23.893,0-42.667,18.773-42.667,42.667S34.84,101.4,58.733,101.4
		S101.4,82.627,101.4,58.733S82.627,16.067,58.733,16.067z"/>
	<path d="M41.667,67.267c-5.12,0-8.533-3.413-8.533-8.533c0-14.507,11.093-25.6,25.6-25.6c5.12,0,8.533,3.413,8.533,8.533
		S63.853,50.2,58.733,50.2S50.2,53.613,50.2,58.733S46.787,67.267,41.667,67.267z"/>
	<path d="M434.2,511c-42.667,0-76.8-34.133-76.8-76.8s34.133-76.8,76.8-76.8s76.8,34.133,76.8,76.8S476.867,511,434.2,511z
		 M434.2,374.467c-33.28,0-59.733,26.453-59.733,59.733s26.453,59.733,59.733,59.733s59.733-26.453,59.733-59.733
		S467.48,374.467,434.2,374.467z"/>
	<path d="M400.067,442.733c-5.12,0-8.533-3.413-8.533-8.533c0-23.893,18.773-42.667,42.667-42.667c5.12,0,8.533,3.413,8.533,8.533
		s-3.413,8.533-8.533,8.533c-14.507,0-25.6,11.093-25.6,25.6C408.6,439.32,405.187,442.733,400.067,442.733z"/>
	<path d="M84.333,511C37.4,511-1,472.6-1,425.667s38.4-85.333,85.333-85.333s85.333,38.4,85.333,85.333S131.267,511,84.333,511z
		 M84.333,357.4c-37.547,0-68.267,30.72-68.267,68.267s30.72,68.267,68.267,68.267s68.267-30.72,68.267-68.267
		S121.88,357.4,84.333,357.4z"/>
	<path d="M41.667,434.2c-5.12,0-8.533-3.413-8.533-8.533c0-28.16,23.04-51.2,51.2-51.2c5.12,0,8.533,3.413,8.533,8.533
		c0,5.12-3.413,8.533-8.533,8.533c-18.773,0-34.133,15.36-34.133,34.133C50.2,430.787,46.787,434.2,41.667,434.2z"/>
	<path d="M313.88,202.093c-2.56,0-4.267-0.853-5.973-2.56c-3.413-3.413-3.413-8.533,0-11.947l85.333-85.333
		c3.413-3.413,8.533-3.413,11.947,0s3.413,8.533,0,11.947l-85.333,85.333C318.147,201.24,316.44,202.093,313.88,202.093z"/>
	<path d="M138.093,380.44c-2.56,0-4.267-0.853-5.973-2.56c-3.413-3.413-3.413-8.533,0-11.947l56.32-56.32
		c3.413-3.413,8.533-3.413,11.947,0c3.413,3.413,3.413,8.533,0,11.947l-56.32,56.32C143.213,379.587,140.653,380.44,138.093,380.44z
		"/>
	<path d="M385.56,394.093c-2.56,0-4.267-0.853-5.973-2.56l-70.827-70.827c-3.413-3.413-3.413-8.533,0-11.947s8.533-3.413,11.947,0
		l70.827,70.827c3.413,3.413,3.413,8.533,0,11.947C390.68,393.24,388.12,394.093,385.56,394.093z"/>
	<path d="M194.413,202.947c-2.56,0-4.267-0.853-5.973-2.56l-98.987-99.84c-3.413-3.413-3.413-8.533,0-11.947s8.533-3.413,11.947,0
		l98.987,100.693c3.413,3.413,3.413,8.533,0,11.947C198.68,202.947,196.973,202.947,194.413,202.947z"/>
</g>
</svg>